<svg width="141" height="104" viewBox="0 0 141 104" fill="none" xmlns="http://www.w3.org/2000/svg">
<g filter="url(#filter0_dd_5_8)">
<g filter="url(#filter1_b_5_8)">
<path d="M4 16.5139V0H17.3773L35 0.264867L34.9791 20.8322V94.9949C34.9791 94.9949 22.3058 95.4115 15.9692 88.7452C9.63257 82.0789 10.3366 69.9962 10.3366 69.9962V16.5139H4Z" fill="url(#paint0_linear_5_8)"/>
</g>
<g filter="url(#filter2_b_5_8)">
<path d="M36 13.5588V0H48.5143L65 0.21747L64.9805 17.1043V77.9958C64.9805 77.9958 53.1248 78.3379 47.197 72.8645C41.2692 67.3911 41.9278 57.4706 41.9278 57.4706V13.5588H36Z" fill="url(#paint1_linear_5_8)"/>
</g>
<g filter="url(#filter3_b_5_8)">
<path d="M66 13.5588V0H78.5143L95 0.21747L94.9805 17.1043V77.9958C94.9805 77.9958 83.1248 78.3379 77.197 72.8645C71.2692 67.3911 71.9278 57.4706 71.9278 57.4706V13.5588H66Z" fill="url(#paint2_linear_5_8)"/>
</g>
<g filter="url(#filter4_b_5_8)">
<path d="M137 58.0575V77.9977H116.725C116.725 77.9977 107.114 78.221 103.35 74.2348C99.6978 70.3662 100.006 60.8939 100.006 60.8939L100.006 0.00422668C100.006 0.00422668 112.044 -0.337852 118.063 5.13538C124.082 10.6086 123.413 20.5288 123.413 20.5288L123.413 58.0575H137Z" fill="url(#paint3_linear_5_8)"/>
</g>
<path d="M45.7543 79.48L47.4663 85L51.1463 79.48H54.1703L52.1383 91H49.2423L50.3943 84.504L47.9303 88.376H45.8343L44.7463 84.504L43.5943 91H40.7143L42.7463 79.48H45.7543ZM56.4814 88.952C56.7268 88.952 56.9454 88.8987 57.1374 88.792L57.0574 90.6C56.5561 91.016 55.9854 91.224 55.3454 91.224C54.3748 91.224 53.7454 91 53.4574 90.552C53.2654 90.2533 53.1694 89.9387 53.1694 89.608C53.1694 89.2667 53.1908 88.968 53.2334 88.712L54.1934 83.304H56.9134L56.0174 88.344C56.0068 88.408 56.0014 88.4667 56.0014 88.52C56.0014 88.808 56.1614 88.952 56.4814 88.952ZM54.5134 80.696C54.5134 80.0133 54.6628 79.5173 54.9614 79.208C55.2708 78.888 55.7454 78.728 56.3854 78.728C57.2814 78.728 57.7294 79.1227 57.7294 79.912C57.7294 80.584 57.5748 81.0747 57.2654 81.384C56.9668 81.6933 56.4921 81.848 55.8414 81.848C54.9561 81.848 54.5134 81.464 54.5134 80.696ZM63.8011 91.256C63.5664 92.6107 63.0277 93.6827 62.1851 94.472C61.3531 95.2613 60.3984 95.656 59.3211 95.656C58.2437 95.656 57.4651 95.4587 56.9851 95.064C56.5157 94.6693 56.2811 94.152 56.2811 93.512C56.2811 92.5733 56.8784 91.7573 58.0731 91.064C57.1664 90.776 56.7131 90.088 56.7131 89C56.7131 88.7333 56.7397 88.44 56.7931 88.12L57.1131 86.248C57.2837 85.288 57.6784 84.5253 58.2971 83.96C58.9157 83.384 59.7157 83.096 60.6971 83.096C61.6891 83.096 62.3664 83.336 62.7291 83.816L62.8251 83.304H65.2091L63.8011 91.256ZM59.5771 87.768C59.5557 87.864 59.5451 87.9973 59.5451 88.168C59.5451 88.3387 59.6251 88.5093 59.7851 88.68C59.9451 88.84 60.2117 88.92 60.5851 88.92C60.9691 88.92 61.2997 88.7707 61.5771 88.472L62.0571 85.784C61.9077 85.5173 61.6251 85.384 61.2091 85.384C60.7931 85.384 60.4677 85.4907 60.2331 85.704C59.9984 85.9173 59.8491 86.2053 59.7851 86.568L59.5771 87.768ZM59.6891 93.368C60.3824 93.368 60.8357 92.7387 61.0491 91.48L61.2091 90.552C59.7264 91.2453 58.9851 91.944 58.9851 92.648C58.9851 92.8613 59.0437 93.032 59.1611 93.16C59.2891 93.2987 59.4651 93.368 59.6891 93.368ZM72.0193 88.536C72.0193 88.8133 72.158 88.952 72.4353 88.952C72.7233 88.952 72.9633 88.8987 73.1553 88.792L73.0753 90.6C72.5633 91.016 71.9873 91.224 71.3473 91.224C70.142 91.224 69.486 90.76 69.3793 89.832C68.7393 90.76 67.8753 91.224 66.7873 91.224C65.71 91.224 65.0113 90.9787 64.6913 90.488C64.478 90.1787 64.3713 89.8267 64.3713 89.432C64.3713 89.0373 64.4033 88.6747 64.4673 88.344L65.3633 83.304H68.0833L67.3313 87.56C67.2993 87.752 67.2833 87.944 67.2833 88.136C67.2833 88.648 67.5713 88.904 68.1473 88.904C68.6273 88.904 69.0113 88.7387 69.2993 88.408L70.2113 83.304H72.9313L72.0353 88.344C72.0246 88.408 72.0193 88.472 72.0193 88.536ZM76.0231 91.224C73.8044 91.224 72.6951 90.456 72.6951 88.92C72.6951 88.7067 72.7164 88.4773 72.7591 88.232L73.0951 86.248C73.2764 85.224 73.7457 84.44 74.5031 83.896C75.2711 83.3413 76.2844 83.064 77.5431 83.064C79.6871 83.064 80.7591 83.8747 80.7591 85.496C80.7591 85.7307 80.7377 85.9867 80.6951 86.264L80.5031 87.4H75.6231L75.5591 87.768C75.5377 87.896 75.5271 88.0133 75.5271 88.12C75.5271 88.7067 75.8737 89 76.5671 89C76.8231 89 77.0417 88.92 77.2231 88.76C77.4044 88.6 77.5111 88.4133 77.5431 88.2L80.1991 88.232C79.8471 90.2267 78.4551 91.224 76.0231 91.224ZM77.9431 86.424C77.9857 86.2427 78.0071 86.0773 78.0071 85.928C78.0071 85.768 77.9377 85.608 77.7991 85.448C77.6604 85.288 77.4364 85.208 77.1271 85.208C76.8284 85.208 76.5511 85.3093 76.2951 85.512C76.0497 85.7147 75.8791 86.0187 75.7831 86.424H77.9431ZM83.2352 88.536C83.2352 88.8133 83.3739 88.952 83.6512 88.952C83.9392 88.952 84.1792 88.8987 84.3712 88.792L84.2912 90.6C83.7792 91.016 83.2032 91.224 82.5632 91.224C81.5925 91.224 80.9632 91 80.6752 90.552C80.4939 90.264 80.4032 89.9493 80.4032 89.608C80.4032 89.2667 80.4245 88.968 80.4672 88.712L82.2112 78.856H84.9312L83.2512 88.344C83.2405 88.408 83.2352 88.472 83.2352 88.536ZM93.7403 91H86.4443L88.4763 79.48H91.3563L89.7723 88.504H94.1883L93.7403 91ZM97.0864 88.952C97.3318 88.952 97.5504 88.8987 97.7424 88.792L97.6624 90.6C97.1611 91.016 96.5904 91.224 95.9504 91.224C94.9798 91.224 94.3504 91 94.0624 90.552C93.8704 90.2533 93.7744 89.9387 93.7744 89.608C93.7744 89.2667 93.7958 88.968 93.8384 88.712L94.7984 83.304H97.5184L96.6224 88.344C96.6118 88.408 96.6064 88.4667 96.6064 88.52C96.6064 88.808 96.7664 88.952 97.0864 88.952ZM95.1184 80.696C95.1184 80.0133 95.2678 79.5173 95.5664 79.208C95.8758 78.888 96.3504 78.728 96.9904 78.728C97.8864 78.728 98.3344 79.1227 98.3344 79.912C98.3344 80.584 98.1798 81.0747 97.8704 81.384C97.5718 81.6933 97.0971 81.848 96.4464 81.848C95.5611 81.848 95.1184 81.464 95.1184 80.696ZM102.518 86.088C102.518 85.6293 102.294 85.4 101.846 85.4C101.409 85.4 101.046 85.5653 100.758 85.896L99.8621 91H97.1421L98.5021 83.304H101.03L100.854 84.248C101.483 83.4693 102.278 83.08 103.238 83.08C104.198 83.08 104.822 83.3147 105.11 83.784C105.291 84.0827 105.382 84.424 105.382 84.808C105.382 85.192 105.355 85.5493 105.302 85.88L104.87 88.344C104.859 88.408 104.854 88.4667 104.854 88.52C104.854 88.808 105.014 88.952 105.334 88.952C105.579 88.952 105.798 88.8987 105.99 88.792L105.91 90.6C105.409 91.016 104.838 91.224 104.198 91.224C102.747 91.224 102.022 90.616 102.022 89.4C102.022 89.1867 102.043 88.9573 102.086 88.712L102.47 86.584C102.502 86.392 102.518 86.2267 102.518 86.088ZM113.073 88.536C113.073 88.8133 113.211 88.952 113.489 88.952C113.777 88.952 114.017 88.8987 114.209 88.792L114.129 90.6C113.617 91.016 113.041 91.224 112.401 91.224C111.227 91.224 110.577 90.7973 110.449 89.944C109.915 90.7973 109.131 91.224 108.097 91.224C106.347 91.224 105.473 90.472 105.473 88.968C105.473 88.712 105.499 88.4293 105.553 88.12L105.889 86.248C106.059 85.288 106.449 84.5253 107.057 83.96C107.675 83.384 108.475 83.096 109.457 83.096C110.449 83.096 111.121 83.3253 111.473 83.784L111.553 83.304H113.985L113.089 88.344C113.078 88.408 113.073 88.472 113.073 88.536ZM108.337 87.768C108.315 87.864 108.305 87.9973 108.305 88.168C108.305 88.3387 108.385 88.5093 108.545 88.68C108.705 88.84 108.971 88.92 109.345 88.92C109.729 88.92 110.059 88.7707 110.337 88.472L110.817 85.784C110.699 85.5173 110.422 85.384 109.985 85.384C109.163 85.384 108.683 85.7787 108.545 86.568L108.337 87.768ZM121.594 84.936C121.594 85.2987 121.53 85.6507 121.402 85.992C121.284 86.3333 121.167 86.584 121.05 86.744L120.874 86.968H118.458C118.724 86.7227 118.858 86.4187 118.858 86.056C118.858 85.864 118.794 85.7093 118.666 85.592C118.548 85.464 118.383 85.4 118.17 85.4C117.807 85.4 117.492 85.5813 117.226 85.944L116.33 91H113.61L114.97 83.304H117.498L117.306 84.376C117.914 83.512 118.65 83.08 119.514 83.08C120.207 83.08 120.724 83.2453 121.066 83.576C121.418 83.9067 121.594 84.36 121.594 84.936ZM123.924 91.224C121.706 91.224 120.596 90.456 120.596 88.92C120.596 88.7067 120.618 88.4773 120.66 88.232L120.996 86.248C121.178 85.224 121.647 84.44 122.404 83.896C123.172 83.3413 124.186 83.064 125.444 83.064C127.588 83.064 128.66 83.8747 128.66 85.496C128.66 85.7307 128.639 85.9867 128.596 86.264L128.404 87.4H123.524L123.46 87.768C123.439 87.896 123.428 88.0133 123.428 88.12C123.428 88.7067 123.775 89 124.468 89C124.724 89 124.943 88.92 125.124 88.76C125.306 88.6 125.412 88.4133 125.444 88.2L128.1 88.232C127.748 90.2267 126.356 91.224 123.924 91.224ZM125.844 86.424C125.887 86.2427 125.908 86.0773 125.908 85.928C125.908 85.768 125.839 85.608 125.7 85.448C125.562 85.288 125.338 85.208 125.028 85.208C124.73 85.208 124.452 85.3093 124.196 85.512C123.951 85.7147 123.78 86.0187 123.684 86.424H125.844ZM136.16 84.968C136.16 85.32 136.054 85.6453 135.84 85.944H133.216C133.302 85.88 133.344 85.7733 133.344 85.624C133.344 85.4747 133.259 85.3573 133.088 85.272C132.918 85.176 132.699 85.128 132.432 85.128C131.632 85.128 131.232 85.3733 131.232 85.864C131.232 86.056 131.382 86.1947 131.68 86.28C131.979 86.3653 132.342 86.4347 132.768 86.488C133.195 86.5413 133.622 86.6213 134.048 86.728C134.475 86.824 134.838 87.0213 135.136 87.32C135.435 87.6187 135.584 88.0187 135.584 88.52C135.584 89.4053 135.227 90.0773 134.512 90.536C133.808 90.9947 132.779 91.224 131.424 91.224C130.07 91.224 129.12 91.0053 128.576 90.568C128.15 90.2267 127.936 89.7573 127.936 89.16C127.936 88.9893 127.952 88.8133 127.984 88.632L130.656 88.6C130.635 88.7493 130.72 88.8827 130.912 89C131.115 89.1067 131.408 89.16 131.792 89.16C132.176 89.16 132.454 89.1227 132.624 89.048C132.795 88.9627 132.88 88.808 132.88 88.584C132.88 88.4347 132.731 88.3333 132.432 88.28C132.134 88.216 131.766 88.1627 131.328 88.12C130.902 88.0773 130.47 88.008 130.032 87.912C129.606 87.816 129.243 87.6133 128.944 87.304C128.646 86.9947 128.496 86.5893 128.496 86.088C128.496 85.1173 128.87 84.3707 129.616 83.848C130.374 83.3253 131.462 83.064 132.88 83.064C135.067 83.064 136.16 83.6987 136.16 84.968Z" fill="#0395FF"/>
</g>
<defs>
<filter id="filter0_dd_5_8" x="0" y="0" width="141" height="103.656" filterUnits="userSpaceOnUse" color-interpolation-filters="sRGB">
<feFlood flood-opacity="0" result="BackgroundImageFix"/>
<feColorMatrix in="SourceAlpha" type="matrix" values="0 0 0 0 0 0 0 0 0 0 0 0 0 0 0 0 0 0 127 0" result="hardAlpha"/>
<feOffset dy="4"/>
<feGaussianBlur stdDeviation="2"/>
<feComposite in2="hardAlpha" operator="out"/>
<feColorMatrix type="matrix" values="0 0 0 0 0 0 0 0 0 0 0 0 0 0 0 0 0 0 0.25 0"/>
<feBlend mode="normal" in2="BackgroundImageFix" result="effect1_dropShadow_5_8"/>
<feColorMatrix in="SourceAlpha" type="matrix" values="0 0 0 0 0 0 0 0 0 0 0 0 0 0 0 0 0 0 127 0" result="hardAlpha"/>
<feOffset dy="4"/>
<feGaussianBlur stdDeviation="2"/>
<feComposite in2="hardAlpha" operator="out"/>
<feColorMatrix type="matrix" values="0 0 0 0 0 0 0 0 0 0 0 0 0 0 0 0 0 0 0.25 0"/>
<feBlend mode="normal" in2="effect1_dropShadow_5_8" result="effect2_dropShadow_5_8"/>
<feBlend mode="normal" in="SourceGraphic" in2="effect2_dropShadow_5_8" result="shape"/>
</filter>
<filter id="filter1_b_5_8" x="0" y="-4" width="39" height="103" filterUnits="userSpaceOnUse" color-interpolation-filters="sRGB">
<feFlood flood-opacity="0" result="BackgroundImageFix"/>
<feGaussianBlur in="BackgroundImageFix" stdDeviation="2"/>
<feComposite in2="SourceAlpha" operator="in" result="effect1_backgroundBlur_5_8"/>
<feBlend mode="normal" in="SourceGraphic" in2="effect1_backgroundBlur_5_8" result="shape"/>
</filter>
<filter id="filter2_b_5_8" x="32" y="-4" width="37" height="86" filterUnits="userSpaceOnUse" color-interpolation-filters="sRGB">
<feFlood flood-opacity="0" result="BackgroundImageFix"/>
<feGaussianBlur in="BackgroundImageFix" stdDeviation="2"/>
<feComposite in2="SourceAlpha" operator="in" result="effect1_backgroundBlur_5_8"/>
<feBlend mode="normal" in="SourceGraphic" in2="effect1_backgroundBlur_5_8" result="shape"/>
</filter>
<filter id="filter3_b_5_8" x="62" y="-4" width="37" height="86" filterUnits="userSpaceOnUse" color-interpolation-filters="sRGB">
<feFlood flood-opacity="0" result="BackgroundImageFix"/>
<feGaussianBlur in="BackgroundImageFix" stdDeviation="2"/>
<feComposite in2="SourceAlpha" operator="in" result="effect1_backgroundBlur_5_8"/>
<feBlend mode="normal" in="SourceGraphic" in2="effect1_backgroundBlur_5_8" result="shape"/>
</filter>
<filter id="filter4_b_5_8" x="96" y="-4" width="45" height="86" filterUnits="userSpaceOnUse" color-interpolation-filters="sRGB">
<feFlood flood-opacity="0" result="BackgroundImageFix"/>
<feGaussianBlur in="BackgroundImageFix" stdDeviation="2"/>
<feComposite in2="SourceAlpha" operator="in" result="effect1_backgroundBlur_5_8"/>
<feBlend mode="normal" in="SourceGraphic" in2="effect1_backgroundBlur_5_8" result="shape"/>
</filter>
<linearGradient id="paint0_linear_5_8" x1="17.3773" y1="0.833381" x2="17.3773" y2="95.0001" gradientUnits="userSpaceOnUse">
<stop stop-color="#0395FF"/>
<stop offset="1"/>
<stop offset="1" stop-color="#0496FF"/>
</linearGradient>
<linearGradient id="paint1_linear_5_8" x1="48.5143" y1="0.68425" x2="48.5143" y2="78.0001" gradientUnits="userSpaceOnUse">
<stop stop-color="#0395FF"/>
<stop offset="1"/>
<stop offset="1"/>
</linearGradient>
<linearGradient id="paint2_linear_5_8" x1="78.5143" y1="0.68425" x2="78.5143" y2="78.0001" gradientUnits="userSpaceOnUse">
<stop stop-color="#0395FF"/>
<stop offset="1"/>
<stop offset="1"/>
</linearGradient>
<linearGradient id="paint3_linear_5_8" x1="116.725" y1="77.3135" x2="116.725" y2="-6.50195e-05" gradientUnits="userSpaceOnUse">
<stop/>
<stop offset="1" stop-color="#FF0000"/>
</linearGradient>
</defs>
</svg>
